<?xml version="1.0" standalone="no"?>
<!DOCTYPE svg PUBLIC "-//W3C//DTD SVG 20010904//EN"
 "http://www.w3.org/TR/2001/REC-SVG-20010904/DTD/svg10.dtd">
<svg version="1.0" xmlns="http://www.w3.org/2000/svg"
 width="300.000000pt" height="300.000000pt" viewBox="0 0 300.000000 300.000000"
 preserveAspectRatio="xMidYMid meet">
<metadata>
Created by potrace 1.10, written by Peter Selinger 2001-2011
</metadata>
<g transform="translate(0.000000,300.000000) scale(0.050000,-0.050000)"
fill="#584D62" stroke="none">
<path d="M2680 5977 c-2283 -237 -3452 -2906 -2084 -4757 1376 -1861 4273
-1507 5166 631 873 2087 -825 4360 -3082 4126z m40 -1857 c256 -341 471 -620
480 -620 8 0 273 279 589 620 l574 620 162 0 163 0 -71 -75 c-39 -41 -298
-322 -577 -625 -279 -302 -550 -595 -603 -651 l-97 -100 749 -1000 c413 -549
750 -1006 750 -1014 1 -8 -244 -15 -544 -14 l-545 1 -508 679 c-351 470 -514
674 -530 661 -12 -10 -296 -316 -632 -680 l-610 -661 -155 -1 c-85 0 -155 5
-155 11 0 5 317 353 705 771 388 418 707 767 710 775 3 7 -314 441 -705 962
-390 522 -710 951 -710 955 0 3 246 6 548 6 l547 0 465 -620z"/>
<path d="M1654 4473 c9 -15 511 -690 1116 -1500 l1100 -1472 247 0 c152 -1
244 6 240 19 -4 10 -505 685 -1114 1500 l-1106 1480 -250 0 c-205 0 -246 -5
-233 -27z"/>
</g>
</svg>
